<?xml version="1.0" encoding="utf-8" standalone="no"?>
<!DOCTYPE svg PUBLIC "-//W3C//DTD SVG 1.1//EN"
  "http://www.w3.org/Graphics/SVG/1.1/DTD/svg11.dtd">
<svg xmlns:xlink="http://www.w3.org/1999/xlink" width="460.8pt" height="345.6pt" viewBox="0 0 460.8 345.6" xmlns="http://www.w3.org/2000/svg" version="1.1">
 <metadata>
  <rdf:RDF xmlns:dc="http://purl.org/dc/elements/1.1/" xmlns:cc="http://creativecommons.org/ns#" xmlns:rdf="http://www.w3.org/1999/02/22-rdf-syntax-ns#">
   <cc:Work>
    <dc:type rdf:resource="http://purl.org/dc/dcmitype/StillImage"/>
    <dc:date>2023-05-30T18:15:15.566522</dc:date>
    <dc:format>image/svg+xml</dc:format>
    <dc:creator>
     <cc:Agent>
      <dc:title>Matplotlib v3.6.3, https://matplotlib.org/</dc:title>
     </cc:Agent>
    </dc:creator>
   </cc:Work>
  </rdf:RDF>
 </metadata>
 <defs>
  <style type="text/css">*{stroke-linejoin: round; stroke-linecap: butt}</style>
 </defs>
 <g id="figure_1">
  <g id="patch_1">
   <path d="M 0 345.6 
L 460.8 345.6 
L 460.8 0 
L 0 0 
z
" style="fill: #ffffff"/>
  </g>
  <g id="axes_1">
   <g id="patch_2">
    <path d="M 57.6 307.584 
L 414.72 307.584 
L 414.72 41.472 
L 57.6 41.472 
z
" style="fill: #ffffff"/>
   </g>
   <g id="matplotlib.axis_1">
    <g id="xtick_1">
     <g id="line2d_1">
      <defs>
       <path id="mc7bb086e65" d="M 0 0 
L 0 3.5 
" style="stroke: #000000; stroke-width: 0.8"/>
      </defs>
      <g>
       <use xlink:href="#mc7bb086e65" x="74.605714" y="307.584" style="stroke: #000000; stroke-width: 0.8"/>
      </g>
     </g>
     <g id="text_1">
      <!-- 0.0 -->
      <g transform="translate(66.654152 322.182437) scale(0.1 -0.1)">
       <defs>
        <path id="DejaVuSans-30" d="M 2034 4250 
Q 1547 4250 1301 3770 
Q 1056 3291 1056 2328 
Q 1056 1369 1301 889 
Q 1547 409 2034 409 
Q 2525 409 2770 889 
Q 3016 1369 3016 2328 
Q 3016 3291 2770 3770 
Q 2525 4250 2034 4250 
z
M 2034 4750 
Q 2819 4750 3233 4129 
Q 3647 3509 3647 2328 
Q 3647 1150 3233 529 
Q 2819 -91 2034 -91 
Q 1250 -91 836 529 
Q 422 1150 422 2328 
Q 422 3509 836 4129 
Q 1250 4750 2034 4750 
z
" transform="scale(0.015625)"/>
        <path id="DejaVuSans-2e" d="M 684 794 
L 1344 794 
L 1344 0 
L 684 0 
L 684 794 
z
" transform="scale(0.015625)"/>
       </defs>
       <use xlink:href="#DejaVuSans-30"/>
       <use xlink:href="#DejaVuSans-2e" x="63.623047"/>
       <use xlink:href="#DejaVuSans-30" x="95.410156"/>
      </g>
     </g>
    </g>
    <g id="xtick_2">
     <g id="line2d_2">
      <g>
       <use xlink:href="#mc7bb086e65" x="142.628571" y="307.584" style="stroke: #000000; stroke-width: 0.8"/>
      </g>
     </g>
     <g id="text_2">
      <!-- 0.2 -->
      <g transform="translate(134.677009 322.182437) scale(0.1 -0.1)">
       <defs>
        <path id="DejaVuSans-32" d="M 1228 531 
L 3431 531 
L 3431 0 
L 469 0 
L 469 531 
Q 828 903 1448 1529 
Q 2069 2156 2228 2338 
Q 2531 2678 2651 2914 
Q 2772 3150 2772 3378 
Q 2772 3750 2511 3984 
Q 2250 4219 1831 4219 
Q 1534 4219 1204 4116 
Q 875 4013 500 3803 
L 500 4441 
Q 881 4594 1212 4672 
Q 1544 4750 1819 4750 
Q 2544 4750 2975 4387 
Q 3406 4025 3406 3419 
Q 3406 3131 3298 2873 
Q 3191 2616 2906 2266 
Q 2828 2175 2409 1742 
Q 1991 1309 1228 531 
z
" transform="scale(0.015625)"/>
       </defs>
       <use xlink:href="#DejaVuSans-30"/>
       <use xlink:href="#DejaVuSans-2e" x="63.623047"/>
       <use xlink:href="#DejaVuSans-32" x="95.410156"/>
      </g>
     </g>
    </g>
    <g id="xtick_3">
     <g id="line2d_3">
      <g>
       <use xlink:href="#mc7bb086e65" x="210.651429" y="307.584" style="stroke: #000000; stroke-width: 0.8"/>
      </g>
     </g>
     <g id="text_3">
      <!-- 0.4 -->
      <g transform="translate(202.699866 322.182437) scale(0.1 -0.1)">
       <defs>
        <path id="DejaVuSans-34" d="M 2419 4116 
L 825 1625 
L 2419 1625 
L 2419 4116 
z
M 2253 4666 
L 3047 4666 
L 3047 1625 
L 3713 1625 
L 3713 1100 
L 3047 1100 
L 3047 0 
L 2419 0 
L 2419 1100 
L 313 1100 
L 313 1709 
L 2253 4666 
z
" transform="scale(0.015625)"/>
       </defs>
       <use xlink:href="#DejaVuSans-30"/>
       <use xlink:href="#DejaVuSans-2e" x="63.623047"/>
       <use xlink:href="#DejaVuSans-34" x="95.410156"/>
      </g>
     </g>
    </g>
    <g id="xtick_4">
     <g id="line2d_4">
      <g>
       <use xlink:href="#mc7bb086e65" x="278.674286" y="307.584" style="stroke: #000000; stroke-width: 0.8"/>
      </g>
     </g>
     <g id="text_4">
      <!-- 0.6 -->
      <g transform="translate(270.722723 322.182437) scale(0.1 -0.1)">
       <defs>
        <path id="DejaVuSans-36" d="M 2113 2584 
Q 1688 2584 1439 2293 
Q 1191 2003 1191 1497 
Q 1191 994 1439 701 
Q 1688 409 2113 409 
Q 2538 409 2786 701 
Q 3034 994 3034 1497 
Q 3034 2003 2786 2293 
Q 2538 2584 2113 2584 
z
M 3366 4563 
L 3366 3988 
Q 3128 4100 2886 4159 
Q 2644 4219 2406 4219 
Q 1781 4219 1451 3797 
Q 1122 3375 1075 2522 
Q 1259 2794 1537 2939 
Q 1816 3084 2150 3084 
Q 2853 3084 3261 2657 
Q 3669 2231 3669 1497 
Q 3669 778 3244 343 
Q 2819 -91 2113 -91 
Q 1303 -91 875 529 
Q 447 1150 447 2328 
Q 447 3434 972 4092 
Q 1497 4750 2381 4750 
Q 2619 4750 2861 4703 
Q 3103 4656 3366 4563 
z
" transform="scale(0.015625)"/>
       </defs>
       <use xlink:href="#DejaVuSans-30"/>
       <use xlink:href="#DejaVuSans-2e" x="63.623047"/>
       <use xlink:href="#DejaVuSans-36" x="95.410156"/>
      </g>
     </g>
    </g>
    <g id="xtick_5">
     <g id="line2d_5">
      <g>
       <use xlink:href="#mc7bb086e65" x="346.697143" y="307.584" style="stroke: #000000; stroke-width: 0.8"/>
      </g>
     </g>
     <g id="text_5">
      <!-- 0.8 -->
      <g transform="translate(338.74558 322.182437) scale(0.1 -0.1)">
       <defs>
        <path id="DejaVuSans-38" d="M 2034 2216 
Q 1584 2216 1326 1975 
Q 1069 1734 1069 1313 
Q 1069 891 1326 650 
Q 1584 409 2034 409 
Q 2484 409 2743 651 
Q 3003 894 3003 1313 
Q 3003 1734 2745 1975 
Q 2488 2216 2034 2216 
z
M 1403 2484 
Q 997 2584 770 2862 
Q 544 3141 544 3541 
Q 544 4100 942 4425 
Q 1341 4750 2034 4750 
Q 2731 4750 3128 4425 
Q 3525 4100 3525 3541 
Q 3525 3141 3298 2862 
Q 3072 2584 2669 2484 
Q 3125 2378 3379 2068 
Q 3634 1759 3634 1313 
Q 3634 634 3220 271 
Q 2806 -91 2034 -91 
Q 1263 -91 848 271 
Q 434 634 434 1313 
Q 434 1759 690 2068 
Q 947 2378 1403 2484 
z
M 1172 3481 
Q 1172 3119 1398 2916 
Q 1625 2713 2034 2713 
Q 2441 2713 2670 2916 
Q 2900 3119 2900 3481 
Q 2900 3844 2670 4047 
Q 2441 4250 2034 4250 
Q 1625 4250 1398 4047 
Q 1172 3844 1172 3481 
z
" transform="scale(0.015625)"/>
       </defs>
       <use xlink:href="#DejaVuSans-30"/>
       <use xlink:href="#DejaVuSans-2e" x="63.623047"/>
       <use xlink:href="#DejaVuSans-38" x="95.410156"/>
      </g>
     </g>
    </g>
    <g id="xtick_6">
     <g id="line2d_6">
      <g>
       <use xlink:href="#mc7bb086e65" x="414.72" y="307.584" style="stroke: #000000; stroke-width: 0.8"/>
      </g>
     </g>
     <g id="text_6">
      <!-- 1.0 -->
      <g transform="translate(406.768438 322.182437) scale(0.1 -0.1)">
       <defs>
        <path id="DejaVuSans-31" d="M 794 531 
L 1825 531 
L 1825 4091 
L 703 3866 
L 703 4441 
L 1819 4666 
L 2450 4666 
L 2450 531 
L 3481 531 
L 3481 0 
L 794 0 
L 794 531 
z
" transform="scale(0.015625)"/>
       </defs>
       <use xlink:href="#DejaVuSans-31"/>
       <use xlink:href="#DejaVuSans-2e" x="63.623047"/>
       <use xlink:href="#DejaVuSans-30" x="95.410156"/>
      </g>
     </g>
    </g>
    <g id="text_7">
     <!-- False Positive Rate -->
     <g transform="translate(189.693594 335.860562) scale(0.1 -0.1)">
      <defs>
       <path id="DejaVuSans-46" d="M 628 4666 
L 3309 4666 
L 3309 4134 
L 1259 4134 
L 1259 2759 
L 3109 2759 
L 3109 2228 
L 1259 2228 
L 1259 0 
L 628 0 
L 628 4666 
z
" transform="scale(0.015625)"/>
       <path id="DejaVuSans-61" d="M 2194 1759 
Q 1497 1759 1228 1600 
Q 959 1441 959 1056 
Q 959 750 1161 570 
Q 1363 391 1709 391 
Q 2188 391 2477 730 
Q 2766 1069 2766 1631 
L 2766 1759 
L 2194 1759 
z
M 3341 1997 
L 3341 0 
L 2766 0 
L 2766 531 
Q 2569 213 2275 61 
Q 1981 -91 1556 -91 
Q 1019 -91 701 211 
Q 384 513 384 1019 
Q 384 1609 779 1909 
Q 1175 2209 1959 2209 
L 2766 2209 
L 2766 2266 
Q 2766 2663 2505 2880 
Q 2244 3097 1772 3097 
Q 1472 3097 1187 3025 
Q 903 2953 641 2809 
L 641 3341 
Q 956 3463 1253 3523 
Q 1550 3584 1831 3584 
Q 2591 3584 2966 3190 
Q 3341 2797 3341 1997 
z
" transform="scale(0.015625)"/>
       <path id="DejaVuSans-6c" d="M 603 4863 
L 1178 4863 
L 1178 0 
L 603 0 
L 603 4863 
z
" transform="scale(0.015625)"/>
       <path id="DejaVuSans-73" d="M 2834 3397 
L 2834 2853 
Q 2591 2978 2328 3040 
Q 2066 3103 1784 3103 
Q 1356 3103 1142 2972 
Q 928 2841 928 2578 
Q 928 2378 1081 2264 
Q 1234 2150 1697 2047 
L 1894 2003 
Q 2506 1872 2764 1633 
Q 3022 1394 3022 966 
Q 3022 478 2636 193 
Q 2250 -91 1575 -91 
Q 1294 -91 989 -36 
Q 684 19 347 128 
L 347 722 
Q 666 556 975 473 
Q 1284 391 1588 391 
Q 1994 391 2212 530 
Q 2431 669 2431 922 
Q 2431 1156 2273 1281 
Q 2116 1406 1581 1522 
L 1381 1569 
Q 847 1681 609 1914 
Q 372 2147 372 2553 
Q 372 3047 722 3315 
Q 1072 3584 1716 3584 
Q 2034 3584 2315 3537 
Q 2597 3491 2834 3397 
z
" transform="scale(0.015625)"/>
       <path id="DejaVuSans-65" d="M 3597 1894 
L 3597 1613 
L 953 1613 
Q 991 1019 1311 708 
Q 1631 397 2203 397 
Q 2534 397 2845 478 
Q 3156 559 3463 722 
L 3463 178 
Q 3153 47 2828 -22 
Q 2503 -91 2169 -91 
Q 1331 -91 842 396 
Q 353 884 353 1716 
Q 353 2575 817 3079 
Q 1281 3584 2069 3584 
Q 2775 3584 3186 3129 
Q 3597 2675 3597 1894 
z
M 3022 2063 
Q 3016 2534 2758 2815 
Q 2500 3097 2075 3097 
Q 1594 3097 1305 2825 
Q 1016 2553 972 2059 
L 3022 2063 
z
" transform="scale(0.015625)"/>
       <path id="DejaVuSans-20" transform="scale(0.015625)"/>
       <path id="DejaVuSans-50" d="M 1259 4147 
L 1259 2394 
L 2053 2394 
Q 2494 2394 2734 2622 
Q 2975 2850 2975 3272 
Q 2975 3691 2734 3919 
Q 2494 4147 2053 4147 
L 1259 4147 
z
M 628 4666 
L 2053 4666 
Q 2838 4666 3239 4311 
Q 3641 3956 3641 3272 
Q 3641 2581 3239 2228 
Q 2838 1875 2053 1875 
L 1259 1875 
L 1259 0 
L 628 0 
L 628 4666 
z
" transform="scale(0.015625)"/>
       <path id="DejaVuSans-6f" d="M 1959 3097 
Q 1497 3097 1228 2736 
Q 959 2375 959 1747 
Q 959 1119 1226 758 
Q 1494 397 1959 397 
Q 2419 397 2687 759 
Q 2956 1122 2956 1747 
Q 2956 2369 2687 2733 
Q 2419 3097 1959 3097 
z
M 1959 3584 
Q 2709 3584 3137 3096 
Q 3566 2609 3566 1747 
Q 3566 888 3137 398 
Q 2709 -91 1959 -91 
Q 1206 -91 779 398 
Q 353 888 353 1747 
Q 353 2609 779 3096 
Q 1206 3584 1959 3584 
z
" transform="scale(0.015625)"/>
       <path id="DejaVuSans-69" d="M 603 3500 
L 1178 3500 
L 1178 0 
L 603 0 
L 603 3500 
z
M 603 4863 
L 1178 4863 
L 1178 4134 
L 603 4134 
L 603 4863 
z
" transform="scale(0.015625)"/>
       <path id="DejaVuSans-74" d="M 1172 4494 
L 1172 3500 
L 2356 3500 
L 2356 3053 
L 1172 3053 
L 1172 1153 
Q 1172 725 1289 603 
Q 1406 481 1766 481 
L 2356 481 
L 2356 0 
L 1766 0 
Q 1100 0 847 248 
Q 594 497 594 1153 
L 594 3053 
L 172 3053 
L 172 3500 
L 594 3500 
L 594 4494 
L 1172 4494 
z
" transform="scale(0.015625)"/>
       <path id="DejaVuSans-76" d="M 191 3500 
L 800 3500 
L 1894 563 
L 2988 3500 
L 3597 3500 
L 2284 0 
L 1503 0 
L 191 3500 
z
" transform="scale(0.015625)"/>
       <path id="DejaVuSans-52" d="M 2841 2188 
Q 3044 2119 3236 1894 
Q 3428 1669 3622 1275 
L 4263 0 
L 3584 0 
L 2988 1197 
Q 2756 1666 2539 1819 
Q 2322 1972 1947 1972 
L 1259 1972 
L 1259 0 
L 628 0 
L 628 4666 
L 2053 4666 
Q 2853 4666 3247 4331 
Q 3641 3997 3641 3322 
Q 3641 2881 3436 2590 
Q 3231 2300 2841 2188 
z
M 1259 4147 
L 1259 2491 
L 2053 2491 
Q 2509 2491 2742 2702 
Q 2975 2913 2975 3322 
Q 2975 3731 2742 3939 
Q 2509 4147 2053 4147 
L 1259 4147 
z
" transform="scale(0.015625)"/>
      </defs>
      <use xlink:href="#DejaVuSans-46"/>
      <use xlink:href="#DejaVuSans-61" x="48.394531"/>
      <use xlink:href="#DejaVuSans-6c" x="109.673828"/>
      <use xlink:href="#DejaVuSans-73" x="137.457031"/>
      <use xlink:href="#DejaVuSans-65" x="189.556641"/>
      <use xlink:href="#DejaVuSans-20" x="251.080078"/>
      <use xlink:href="#DejaVuSans-50" x="282.867188"/>
      <use xlink:href="#DejaVuSans-6f" x="339.544922"/>
      <use xlink:href="#DejaVuSans-73" x="400.726562"/>
      <use xlink:href="#DejaVuSans-69" x="452.826172"/>
      <use xlink:href="#DejaVuSans-74" x="480.609375"/>
      <use xlink:href="#DejaVuSans-69" x="519.818359"/>
      <use xlink:href="#DejaVuSans-76" x="547.601562"/>
      <use xlink:href="#DejaVuSans-65" x="606.78125"/>
      <use xlink:href="#DejaVuSans-20" x="668.304688"/>
      <use xlink:href="#DejaVuSans-52" x="700.091797"/>
      <use xlink:href="#DejaVuSans-61" x="767.324219"/>
      <use xlink:href="#DejaVuSans-74" x="828.603516"/>
      <use xlink:href="#DejaVuSans-65" x="867.8125"/>
     </g>
    </g>
   </g>
   <g id="matplotlib.axis_2">
    <g id="ytick_1">
     <g id="line2d_7">
      <defs>
       <path id="mb6f7f654a8" d="M 0 0 
L -3.5 0 
" style="stroke: #000000; stroke-width: 0.8"/>
      </defs>
      <g>
       <use xlink:href="#mb6f7f654a8" x="57.6" y="307.584" style="stroke: #000000; stroke-width: 0.8"/>
      </g>
     </g>
     <g id="text_8">
      <!-- 0.0 -->
      <g transform="translate(34.696875 311.383219) scale(0.1 -0.1)">
       <use xlink:href="#DejaVuSans-30"/>
       <use xlink:href="#DejaVuSans-2e" x="63.623047"/>
       <use xlink:href="#DejaVuSans-30" x="95.410156"/>
      </g>
     </g>
    </g>
    <g id="ytick_2">
     <g id="line2d_8">
      <g>
       <use xlink:href="#mb6f7f654a8" x="57.6" y="256.896" style="stroke: #000000; stroke-width: 0.8"/>
      </g>
     </g>
     <g id="text_9">
      <!-- 0.2 -->
      <g transform="translate(34.696875 260.695219) scale(0.1 -0.1)">
       <use xlink:href="#DejaVuSans-30"/>
       <use xlink:href="#DejaVuSans-2e" x="63.623047"/>
       <use xlink:href="#DejaVuSans-32" x="95.410156"/>
      </g>
     </g>
    </g>
    <g id="ytick_3">
     <g id="line2d_9">
      <g>
       <use xlink:href="#mb6f7f654a8" x="57.6" y="206.208" style="stroke: #000000; stroke-width: 0.8"/>
      </g>
     </g>
     <g id="text_10">
      <!-- 0.4 -->
      <g transform="translate(34.696875 210.007219) scale(0.1 -0.1)">
       <use xlink:href="#DejaVuSans-30"/>
       <use xlink:href="#DejaVuSans-2e" x="63.623047"/>
       <use xlink:href="#DejaVuSans-34" x="95.410156"/>
      </g>
     </g>
    </g>
    <g id="ytick_4">
     <g id="line2d_10">
      <g>
       <use xlink:href="#mb6f7f654a8" x="57.6" y="155.52" style="stroke: #000000; stroke-width: 0.8"/>
      </g>
     </g>
     <g id="text_11">
      <!-- 0.6 -->
      <g transform="translate(34.696875 159.319219) scale(0.1 -0.1)">
       <use xlink:href="#DejaVuSans-30"/>
       <use xlink:href="#DejaVuSans-2e" x="63.623047"/>
       <use xlink:href="#DejaVuSans-36" x="95.410156"/>
      </g>
     </g>
    </g>
    <g id="ytick_5">
     <g id="line2d_11">
      <g>
       <use xlink:href="#mb6f7f654a8" x="57.6" y="104.832" style="stroke: #000000; stroke-width: 0.8"/>
      </g>
     </g>
     <g id="text_12">
      <!-- 0.8 -->
      <g transform="translate(34.696875 108.631219) scale(0.1 -0.1)">
       <use xlink:href="#DejaVuSans-30"/>
       <use xlink:href="#DejaVuSans-2e" x="63.623047"/>
       <use xlink:href="#DejaVuSans-38" x="95.410156"/>
      </g>
     </g>
    </g>
    <g id="ytick_6">
     <g id="line2d_12">
      <g>
       <use xlink:href="#mb6f7f654a8" x="57.6" y="54.144" style="stroke: #000000; stroke-width: 0.8"/>
      </g>
     </g>
     <g id="text_13">
      <!-- 1.0 -->
      <g transform="translate(34.696875 57.943219) scale(0.1 -0.1)">
       <use xlink:href="#DejaVuSans-31"/>
       <use xlink:href="#DejaVuSans-2e" x="63.623047"/>
       <use xlink:href="#DejaVuSans-30" x="95.410156"/>
      </g>
     </g>
    </g>
    <g id="text_14">
     <!-- True Positive Rate -->
     <g transform="translate(28.617187 219.057687) rotate(-90) scale(0.1 -0.1)">
      <defs>
       <path id="DejaVuSans-54" d="M -19 4666 
L 3928 4666 
L 3928 4134 
L 2272 4134 
L 2272 0 
L 1638 0 
L 1638 4134 
L -19 4134 
L -19 4666 
z
" transform="scale(0.015625)"/>
       <path id="DejaVuSans-72" d="M 2631 2963 
Q 2534 3019 2420 3045 
Q 2306 3072 2169 3072 
Q 1681 3072 1420 2755 
Q 1159 2438 1159 1844 
L 1159 0 
L 581 0 
L 581 3500 
L 1159 3500 
L 1159 2956 
Q 1341 3275 1631 3429 
Q 1922 3584 2338 3584 
Q 2397 3584 2469 3576 
Q 2541 3569 2628 3553 
L 2631 2963 
z
" transform="scale(0.015625)"/>
       <path id="DejaVuSans-75" d="M 544 1381 
L 544 3500 
L 1119 3500 
L 1119 1403 
Q 1119 906 1312 657 
Q 1506 409 1894 409 
Q 2359 409 2629 706 
Q 2900 1003 2900 1516 
L 2900 3500 
L 3475 3500 
L 3475 0 
L 2900 0 
L 2900 538 
Q 2691 219 2414 64 
Q 2138 -91 1772 -91 
Q 1169 -91 856 284 
Q 544 659 544 1381 
z
M 1991 3584 
L 1991 3584 
z
" transform="scale(0.015625)"/>
      </defs>
      <use xlink:href="#DejaVuSans-54"/>
      <use xlink:href="#DejaVuSans-72" x="46.333984"/>
      <use xlink:href="#DejaVuSans-75" x="87.447266"/>
      <use xlink:href="#DejaVuSans-65" x="150.826172"/>
      <use xlink:href="#DejaVuSans-20" x="212.349609"/>
      <use xlink:href="#DejaVuSans-50" x="244.136719"/>
      <use xlink:href="#DejaVuSans-6f" x="300.814453"/>
      <use xlink:href="#DejaVuSans-73" x="361.996094"/>
      <use xlink:href="#DejaVuSans-69" x="414.095703"/>
      <use xlink:href="#DejaVuSans-74" x="441.878906"/>
      <use xlink:href="#DejaVuSans-69" x="481.087891"/>
      <use xlink:href="#DejaVuSans-76" x="508.871094"/>
      <use xlink:href="#DejaVuSans-65" x="568.050781"/>
      <use xlink:href="#DejaVuSans-20" x="629.574219"/>
      <use xlink:href="#DejaVuSans-52" x="661.361328"/>
      <use xlink:href="#DejaVuSans-61" x="728.59375"/>
      <use xlink:href="#DejaVuSans-74" x="789.873047"/>
      <use xlink:href="#DejaVuSans-65" x="829.082031"/>
     </g>
    </g>
   </g>
   <g id="line2d_13">
    <path d="M 74.605714 307.584 
L 74.605714 291.744 
L 74.605714 286.464 
L 74.605714 275.904 
L 74.605714 270.624 
L 74.605714 249.504 
L 74.605714 244.224 
L 74.605714 233.664 
L 74.605714 207.264 
L 74.605714 196.704 
L 74.605714 122.784 
L 74.605714 112.224 
L 74.605714 80.544 
L 77.363398 80.544 
L 79.201853 80.544 
L 79.201853 75.264 
L 81.959537 75.264 
L 81.959537 69.984 
L 83.797992 69.984 
L 83.797992 64.704 
L 84.71722 64.704 
L 84.71722 59.424 
L 87.474903 59.424 
L 87.474903 54.144 
L 91.151815 54.144 
L 100.344093 54.144 
L 104.021004 54.144 
L 105.859459 54.144 
L 107.697915 54.144 
L 113.213282 54.144 
L 115.051737 54.144 
L 115.970965 54.144 
L 117.809421 54.144 
L 121.486332 54.144 
L 123.324788 54.144 
L 127.920927 54.144 
L 136.193977 54.144 
L 138.032432 54.144 
L 145.386255 54.144 
L 151.820849 54.144 
L 154.578533 54.144 
L 160.0939 54.144 
L 170.205405 54.144 
L 187.670734 54.144 
L 199.620695 54.144 
L 237.309035 54.144 
L 414.72 54.144 
" clip-path="url(#p96c9f846d5)" style="fill: none; stroke: #0000ff; stroke-width: 2; stroke-linecap: square"/>
   </g>
   <g id="line2d_14">
    <path d="M 74.605714 307.584 
L 74.605714 303.36 
L 74.605714 294.912 
L 74.605714 278.016 
L 74.605714 265.344 
L 74.605714 248.448 
L 75.555754 248.448 
L 75.555754 240 
L 75.555754 231.552 
L 75.555754 214.656 
L 75.555754 206.208 
L 75.555754 201.984 
L 75.555754 193.536 
L 75.555754 185.088 
L 75.555754 176.64 
L 75.555754 172.416 
L 76.505794 172.416 
L 76.505794 163.968 
L 78.405874 163.968 
L 78.405874 159.744 
L 80.305954 159.744 
L 80.305954 155.52 
L 81.255994 151.296 
L 81.255994 142.848 
L 82.206034 142.848 
L 83.156073 130.176 
L 83.156073 92.16 
L 83.156073 83.712 
L 83.156073 79.488 
L 85.056153 79.488 
L 85.056153 75.264 
L 86.006193 71.04 
L 86.006193 62.592 
L 87.906273 62.592 
L 89.806353 62.592 
L 89.806353 58.368 
L 92.656472 58.368 
L 94.556552 58.368 
L 97.406672 58.368 
L 99.306752 58.368 
L 108.807151 58.368 
L 108.807151 54.144 
L 112.60731 54.144 
L 114.50739 54.144 
L 116.40747 54.144 
L 120.20763 54.144 
L 121.15767 54.144 
L 124.007789 54.144 
L 124.957829 54.144 
L 126.857909 54.144 
L 127.807949 54.144 
L 133.508188 54.144 
L 134.458228 54.144 
L 140.158468 54.144 
L 141.108508 54.144 
L 143.008587 54.144 
L 147.758787 54.144 
L 153.459026 54.144 
L 157.259186 54.144 
L 160.109306 54.144 
L 162.009385 54.144 
L 164.859505 54.144 
L 169.609705 54.144 
L 177.210024 54.144 
L 180.060144 54.144 
L 183.860303 54.144 
L 190.510583 54.144 
L 195.260782 54.144 
L 200.961022 54.144 
L 218.06174 54.144 
L 230.412259 54.144 
L 246.562937 54.144 
L 269.363895 54.144 
L 290.264773 54.144 
L 414.72 54.144 
" clip-path="url(#p96c9f846d5)" style="fill: none; stroke: #800080; stroke-width: 2; stroke-linecap: square"/>
   </g>
   <g id="line2d_15">
    <path d="M 74.605714 307.584 
L 74.605714 303.684923 
L 74.605714 295.886769 
L 74.605714 280.290462 
L 74.605714 272.492308 
L 74.605714 264.694154 
L 74.605714 252.996923 
L 74.605714 245.198769 
L 74.605714 229.602462 
L 74.605714 217.905231 
L 74.605714 206.208 
L 74.605714 190.611692 
L 74.605714 167.217231 
L 74.605714 159.419077 
L 74.605714 151.620923 
L 74.605714 143.822769 
L 74.605714 136.024615 
L 74.605714 124.327385 
L 74.605714 116.529231 
L 74.605714 112.630154 
L 74.605714 104.832 
L 74.605714 73.639385 
L 75.569211 73.639385 
L 75.569211 58.043077 
L 78.459701 58.043077 
L 81.35019 58.043077 
L 83.277183 58.043077 
L 85.204176 54.144 
L 87.13117 54.144 
L 89.058163 54.144 
L 90.985156 54.144 
L 92.912149 54.144 
L 102.547115 54.144 
L 104.474108 54.144 
L 106.401101 54.144 
L 110.255087 54.144 
L 112.18208 54.144 
L 116.036066 54.144 
L 116.999563 54.144 
L 120.853549 54.144 
L 121.817046 54.144 
L 123.744039 54.144 
L 135.305998 54.144 
L 139.159984 54.144 
L 145.90446 54.144 
L 146.867956 54.144 
L 160.356908 54.144 
L 165.174391 54.144 
L 169.028377 54.144 
L 177.699846 54.144 
L 188.298308 54.144 
L 201.78726 54.144 
L 212.385722 54.144 
L 225.874674 54.144 
L 236.473136 54.144 
L 248.035095 54.144 
L 264.414537 54.144 
L 278.866985 54.144 
L 296.209923 54.144 
L 311.625868 54.144 
L 354.019717 54.144 
L 414.72 54.144 
" clip-path="url(#p96c9f846d5)" style="fill: none; stroke: #ffa500; stroke-width: 2; stroke-linecap: square"/>
   </g>
   <g id="line2d_16">
    <path d="M 74.605714 307.584 
L 74.605714 300.129882 
L 74.605714 285.221647 
L 74.605714 277.767529 
L 74.605714 259.132235 
L 74.605714 251.678118 
L 74.605714 240.496941 
L 74.605714 218.134588 
L 74.605714 214.407529 
L 74.605714 206.953412 
L 74.605714 192.045176 
L 74.605714 184.591059 
L 74.605714 162.228706 
L 74.605714 158.501647 
L 74.605714 151.047529 
L 74.605714 128.685176 
L 74.605714 117.504 
L 74.605714 102.595765 
L 74.605714 80.233412 
L 74.605714 72.779294 
L 74.605714 54.144 
L 78.492735 54.144 
L 80.436245 54.144 
L 84.323265 54.144 
L 86.266776 54.144 
L 88.210286 54.144 
L 91.125551 54.144 
L 93.069061 54.144 
L 96.956082 54.144 
L 97.927837 54.144 
L 99.871347 54.144 
L 100.843102 54.144 
L 102.786612 54.144 
L 105.701878 54.144 
L 110.560653 54.144 
L 113.475918 54.144 
L 125.13698 54.144 
L 131.939265 54.144 
L 141.656816 54.144 
L 145.543837 54.144 
L 155.261388 54.144 
L 173.724735 54.144 
L 208.707918 54.144 
L 259.239184 54.144 
L 414.72 54.144 
" clip-path="url(#p96c9f846d5)" style="fill: none; stroke: #00ffff; stroke-width: 2; stroke-linecap: square"/>
   </g>
   <g id="line2d_17">
    <path d="M 74.605714 307.584 
L 74.605714 163.968 
L 74.605714 96.384 
L 74.605714 87.936 
L 74.605714 71.04 
L 74.605714 62.592 
L 74.605714 54.144 
L 75.555754 54.144 
L 79.355914 54.144 
L 81.255994 54.144 
L 85.056153 54.144 
L 86.956233 54.144 
L 88.856313 54.144 
L 93.606512 54.144 
L 100.256792 54.144 
L 109.757191 54.144 
L 152.508986 54.144 
L 414.72 54.144 
" clip-path="url(#p96c9f846d5)" style="fill: none; stroke: #808080; stroke-width: 2; stroke-linecap: square"/>
   </g>
   <g id="line2d_18">
    <path d="M 74.605714 307.584 
L 74.605714 303.36 
L 74.605714 282.24 
L 74.605714 273.792 
L 74.605714 244.224 
L 74.605714 235.776 
L 74.605714 231.552 
L 74.605714 214.656 
L 74.605714 206.208 
L 74.605714 197.76 
L 74.605714 180.864 
L 74.605714 172.416 
L 74.605714 168.192 
L 74.605714 159.744 
L 74.605714 125.952 
L 75.555754 125.952 
L 75.555754 121.728 
L 75.555754 113.28 
L 75.555754 109.056 
L 76.505794 109.056 
L 76.505794 100.608 
L 77.455834 100.608 
L 78.405874 96.384 
L 78.405874 92.16 
L 78.405874 83.712 
L 78.405874 79.488 
L 81.255994 79.488 
L 82.206034 75.264 
L 84.106113 75.264 
L 84.106113 71.04 
L 86.006193 71.04 
L 86.006193 66.816 
L 87.906273 66.816 
L 89.806353 58.368 
L 95.506592 58.368 
L 96.456632 58.368 
L 100.256792 58.368 
L 100.256792 54.144 
L 104.056951 54.144 
L 105.957031 54.144 
L 106.907071 54.144 
L 108.807151 54.144 
L 109.757191 54.144 
L 111.657271 54.144 
L 116.40747 54.144 
L 117.35751 54.144 
L 123.057749 54.144 
L 124.957829 54.144 
L 128.757989 54.144 
L 129.708029 54.144 
L 132.558148 54.144 
L 134.458228 54.144 
L 135.408268 54.144 
L 138.258388 54.144 
L 143.008587 54.144 
L 149.658867 54.144 
L 155.359106 54.144 
L 159.159266 54.144 
L 163.909465 54.144 
L 166.759585 54.144 
L 168.659665 54.144 
L 171.509785 54.144 
L 176.259984 54.144 
L 183.860303 54.144 
L 189.560543 54.144 
L 193.360702 54.144 
L 199.060942 54.144 
L 202.861101 54.144 
L 207.611301 54.144 
L 215.21162 54.144 
L 229.462219 54.144 
L 244.662857 54.144 
L 255.113296 54.144 
L 267.463815 54.144 
L 288.364693 54.144 
L 316.86589 54.144 
L 414.72 54.144 
" clip-path="url(#p96c9f846d5)" style="fill: none; stroke: #008000; stroke-width: 2; stroke-linecap: square"/>
   </g>
   <g id="line2d_19">
    <path d="M 74.605714 307.584 
L 74.605714 303.137684 
L 74.605714 285.352421 
L 74.605714 272.013474 
L 74.605714 258.674526 
L 74.605714 249.781895 
L 74.605714 245.335579 
L 74.605714 227.550316 
L 74.605714 223.104 
L 74.605714 214.211368 
L 74.605714 209.765053 
L 74.605714 200.872421 
L 74.605714 196.426105 
L 74.605714 178.640842 
L 74.605714 138.624 
L 74.605714 125.285053 
L 74.605714 116.392421 
L 74.605714 71.929263 
L 77.432149 71.929263 
L 78.374294 67.482947 
L 90.622176 67.482947 
L 92.506466 58.590316 
L 94.390756 58.590316 
L 96.275046 58.590316 
L 97.21719 58.590316 
L 99.10148 58.590316 
L 100.043625 58.590316 
L 101.927915 58.590316 
L 103.812204 54.144 
L 105.696494 54.144 
L 107.580784 54.144 
L 108.522928 54.144 
L 110.407218 54.144 
L 114.175797 54.144 
L 116.060087 54.144 
L 117.944377 54.144 
L 120.770811 54.144 
L 123.597246 54.144 
L 125.481535 54.144 
L 129.250115 54.144 
L 132.076549 54.144 
L 139.613708 54.144 
L 142.440142 54.144 
L 143.382287 54.144 
L 149.035156 54.144 
L 152.803736 54.144 
L 154.688025 54.144 
L 159.39875 54.144 
L 161.283039 54.144 
L 162.225184 54.144 
L 164.109474 54.144 
L 171.646632 54.144 
L 175.415212 54.144 
L 181.068081 54.144 
L 185.778805 54.144 
L 192.373819 54.144 
L 199.910977 54.144 
L 209.332426 54.144 
L 214.985295 54.144 
L 227.233178 54.144 
L 231.943902 54.144 
L 246.076074 54.144 
L 257.381812 54.144 
L 302.604765 54.144 
L 334.637689 54.144 
L 414.72 54.144 
" clip-path="url(#p96c9f846d5)" style="fill: none; stroke: #ff0000; stroke-width: 2; stroke-linecap: square"/>
   </g>
   <g id="line2d_20">
    <path d="M 74.605714 307.584 
L 414.72 54.144 
" clip-path="url(#p96c9f846d5)" style="fill: none; stroke-dasharray: 7.4,3.2; stroke-dashoffset: 0; stroke: #000000; stroke-width: 2"/>
   </g>
   <g id="patch_3">
    <path d="M 57.6 307.584 
L 57.6 41.472 
" style="fill: none; stroke: #000000; stroke-width: 0.8; stroke-linejoin: miter; stroke-linecap: square"/>
   </g>
   <g id="patch_4">
    <path d="M 414.72 307.584 
L 414.72 41.472 
" style="fill: none; stroke: #000000; stroke-width: 0.8; stroke-linejoin: miter; stroke-linecap: square"/>
   </g>
   <g id="patch_5">
    <path d="M 57.6 307.584 
L 414.72 307.584 
" style="fill: none; stroke: #000000; stroke-width: 0.8; stroke-linejoin: miter; stroke-linecap: square"/>
   </g>
   <g id="patch_6">
    <path d="M 57.6 41.472 
L 414.72 41.472 
" style="fill: none; stroke: #000000; stroke-width: 0.8; stroke-linejoin: miter; stroke-linecap: square"/>
   </g>
   <g id="text_15">
    <!-- Receiver operating characteristic for multiclass -->
    <g transform="translate(94.30875 35.472) scale(0.12 -0.12)">
     <defs>
      <path id="DejaVuSans-63" d="M 3122 3366 
L 3122 2828 
Q 2878 2963 2633 3030 
Q 2388 3097 2138 3097 
Q 1578 3097 1268 2742 
Q 959 2388 959 1747 
Q 959 1106 1268 751 
Q 1578 397 2138 397 
Q 2388 397 2633 464 
Q 2878 531 3122 666 
L 3122 134 
Q 2881 22 2623 -34 
Q 2366 -91 2075 -91 
Q 1284 -91 818 406 
Q 353 903 353 1747 
Q 353 2603 823 3093 
Q 1294 3584 2113 3584 
Q 2378 3584 2631 3529 
Q 2884 3475 3122 3366 
z
" transform="scale(0.015625)"/>
      <path id="DejaVuSans-70" d="M 1159 525 
L 1159 -1331 
L 581 -1331 
L 581 3500 
L 1159 3500 
L 1159 2969 
Q 1341 3281 1617 3432 
Q 1894 3584 2278 3584 
Q 2916 3584 3314 3078 
Q 3713 2572 3713 1747 
Q 3713 922 3314 415 
Q 2916 -91 2278 -91 
Q 1894 -91 1617 61 
Q 1341 213 1159 525 
z
M 3116 1747 
Q 3116 2381 2855 2742 
Q 2594 3103 2138 3103 
Q 1681 3103 1420 2742 
Q 1159 2381 1159 1747 
Q 1159 1113 1420 752 
Q 1681 391 2138 391 
Q 2594 391 2855 752 
Q 3116 1113 3116 1747 
z
" transform="scale(0.015625)"/>
      <path id="DejaVuSans-6e" d="M 3513 2113 
L 3513 0 
L 2938 0 
L 2938 2094 
Q 2938 2591 2744 2837 
Q 2550 3084 2163 3084 
Q 1697 3084 1428 2787 
Q 1159 2491 1159 1978 
L 1159 0 
L 581 0 
L 581 3500 
L 1159 3500 
L 1159 2956 
Q 1366 3272 1645 3428 
Q 1925 3584 2291 3584 
Q 2894 3584 3203 3211 
Q 3513 2838 3513 2113 
z
" transform="scale(0.015625)"/>
      <path id="DejaVuSans-67" d="M 2906 1791 
Q 2906 2416 2648 2759 
Q 2391 3103 1925 3103 
Q 1463 3103 1205 2759 
Q 947 2416 947 1791 
Q 947 1169 1205 825 
Q 1463 481 1925 481 
Q 2391 481 2648 825 
Q 2906 1169 2906 1791 
z
M 3481 434 
Q 3481 -459 3084 -895 
Q 2688 -1331 1869 -1331 
Q 1566 -1331 1297 -1286 
Q 1028 -1241 775 -1147 
L 775 -588 
Q 1028 -725 1275 -790 
Q 1522 -856 1778 -856 
Q 2344 -856 2625 -561 
Q 2906 -266 2906 331 
L 2906 616 
Q 2728 306 2450 153 
Q 2172 0 1784 0 
Q 1141 0 747 490 
Q 353 981 353 1791 
Q 353 2603 747 3093 
Q 1141 3584 1784 3584 
Q 2172 3584 2450 3431 
Q 2728 3278 2906 2969 
L 2906 3500 
L 3481 3500 
L 3481 434 
z
" transform="scale(0.015625)"/>
      <path id="DejaVuSans-68" d="M 3513 2113 
L 3513 0 
L 2938 0 
L 2938 2094 
Q 2938 2591 2744 2837 
Q 2550 3084 2163 3084 
Q 1697 3084 1428 2787 
Q 1159 2491 1159 1978 
L 1159 0 
L 581 0 
L 581 4863 
L 1159 4863 
L 1159 2956 
Q 1366 3272 1645 3428 
Q 1925 3584 2291 3584 
Q 2894 3584 3203 3211 
Q 3513 2838 3513 2113 
z
" transform="scale(0.015625)"/>
      <path id="DejaVuSans-66" d="M 2375 4863 
L 2375 4384 
L 1825 4384 
Q 1516 4384 1395 4259 
Q 1275 4134 1275 3809 
L 1275 3500 
L 2222 3500 
L 2222 3053 
L 1275 3053 
L 1275 0 
L 697 0 
L 697 3053 
L 147 3053 
L 147 3500 
L 697 3500 
L 697 3744 
Q 697 4328 969 4595 
Q 1241 4863 1831 4863 
L 2375 4863 
z
" transform="scale(0.015625)"/>
      <path id="DejaVuSans-6d" d="M 3328 2828 
Q 3544 3216 3844 3400 
Q 4144 3584 4550 3584 
Q 5097 3584 5394 3201 
Q 5691 2819 5691 2113 
L 5691 0 
L 5113 0 
L 5113 2094 
Q 5113 2597 4934 2840 
Q 4756 3084 4391 3084 
Q 3944 3084 3684 2787 
Q 3425 2491 3425 1978 
L 3425 0 
L 2847 0 
L 2847 2094 
Q 2847 2600 2669 2842 
Q 2491 3084 2119 3084 
Q 1678 3084 1418 2786 
Q 1159 2488 1159 1978 
L 1159 0 
L 581 0 
L 581 3500 
L 1159 3500 
L 1159 2956 
Q 1356 3278 1631 3431 
Q 1906 3584 2284 3584 
Q 2666 3584 2933 3390 
Q 3200 3197 3328 2828 
z
" transform="scale(0.015625)"/>
     </defs>
     <use xlink:href="#DejaVuSans-52"/>
     <use xlink:href="#DejaVuSans-65" x="64.982422"/>
     <use xlink:href="#DejaVuSans-63" x="126.505859"/>
     <use xlink:href="#DejaVuSans-65" x="181.486328"/>
     <use xlink:href="#DejaVuSans-69" x="243.009766"/>
     <use xlink:href="#DejaVuSans-76" x="270.792969"/>
     <use xlink:href="#DejaVuSans-65" x="329.972656"/>
     <use xlink:href="#DejaVuSans-72" x="391.496094"/>
     <use xlink:href="#DejaVuSans-20" x="432.609375"/>
     <use xlink:href="#DejaVuSans-6f" x="464.396484"/>
     <use xlink:href="#DejaVuSans-70" x="525.578125"/>
     <use xlink:href="#DejaVuSans-65" x="589.054688"/>
     <use xlink:href="#DejaVuSans-72" x="650.578125"/>
     <use xlink:href="#DejaVuSans-61" x="691.691406"/>
     <use xlink:href="#DejaVuSans-74" x="752.970703"/>
     <use xlink:href="#DejaVuSans-69" x="792.179688"/>
     <use xlink:href="#DejaVuSans-6e" x="819.962891"/>
     <use xlink:href="#DejaVuSans-67" x="883.341797"/>
     <use xlink:href="#DejaVuSans-20" x="946.818359"/>
     <use xlink:href="#DejaVuSans-63" x="978.605469"/>
     <use xlink:href="#DejaVuSans-68" x="1033.585938"/>
     <use xlink:href="#DejaVuSans-61" x="1096.964844"/>
     <use xlink:href="#DejaVuSans-72" x="1158.244141"/>
     <use xlink:href="#DejaVuSans-61" x="1199.357422"/>
     <use xlink:href="#DejaVuSans-63" x="1260.636719"/>
     <use xlink:href="#DejaVuSans-74" x="1315.617188"/>
     <use xlink:href="#DejaVuSans-65" x="1354.826172"/>
     <use xlink:href="#DejaVuSans-72" x="1416.349609"/>
     <use xlink:href="#DejaVuSans-69" x="1457.462891"/>
     <use xlink:href="#DejaVuSans-73" x="1485.246094"/>
     <use xlink:href="#DejaVuSans-74" x="1537.345703"/>
     <use xlink:href="#DejaVuSans-69" x="1576.554688"/>
     <use xlink:href="#DejaVuSans-63" x="1604.337891"/>
     <use xlink:href="#DejaVuSans-20" x="1659.318359"/>
     <use xlink:href="#DejaVuSans-66" x="1691.105469"/>
     <use xlink:href="#DejaVuSans-6f" x="1726.310547"/>
     <use xlink:href="#DejaVuSans-72" x="1787.492188"/>
     <use xlink:href="#DejaVuSans-20" x="1828.605469"/>
     <use xlink:href="#DejaVuSans-6d" x="1860.392578"/>
     <use xlink:href="#DejaVuSans-75" x="1957.804688"/>
     <use xlink:href="#DejaVuSans-6c" x="2021.183594"/>
     <use xlink:href="#DejaVuSans-74" x="2048.966797"/>
     <use xlink:href="#DejaVuSans-69" x="2088.175781"/>
     <use xlink:href="#DejaVuSans-63" x="2115.958984"/>
     <use xlink:href="#DejaVuSans-6c" x="2170.939453"/>
     <use xlink:href="#DejaVuSans-61" x="2198.722656"/>
     <use xlink:href="#DejaVuSans-73" x="2260.001953"/>
     <use xlink:href="#DejaVuSans-73" x="2312.101562"/>
    </g>
   </g>
   <g id="legend_1">
    <g id="patch_7">
     <path d="M 203.235625 302.584 
L 407.72 302.584 
Q 409.72 302.584 409.72 300.584 
L 409.72 198.837125 
Q 409.72 196.837125 407.72 196.837125 
L 203.235625 196.837125 
Q 201.235625 196.837125 201.235625 198.837125 
L 201.235625 300.584 
Q 201.235625 302.584 203.235625 302.584 
z
" style="fill: #ffffff; opacity: 0.8; stroke: #cccccc; stroke-linejoin: miter"/>
    </g>
    <g id="line2d_21">
     <path d="M 205.235625 204.935563 
L 215.235625 204.935563 
L 225.235625 204.935563 
" style="fill: none; stroke: #0000ff; stroke-width: 2; stroke-linecap: square"/>
    </g>
    <g id="text_16">
     <!-- ROC curve of class 0 (AUC = 1.00) -->
     <g transform="translate(233.235625 208.435563) scale(0.1 -0.1)">
      <defs>
       <path id="DejaVuSans-4f" d="M 2522 4238 
Q 1834 4238 1429 3725 
Q 1025 3213 1025 2328 
Q 1025 1447 1429 934 
Q 1834 422 2522 422 
Q 3209 422 3611 934 
Q 4013 1447 4013 2328 
Q 4013 3213 3611 3725 
Q 3209 4238 2522 4238 
z
M 2522 4750 
Q 3503 4750 4090 4092 
Q 4678 3434 4678 2328 
Q 4678 1225 4090 567 
Q 3503 -91 2522 -91 
Q 1538 -91 948 565 
Q 359 1222 359 2328 
Q 359 3434 948 4092 
Q 1538 4750 2522 4750 
z
" transform="scale(0.015625)"/>
       <path id="DejaVuSans-43" d="M 4122 4306 
L 4122 3641 
Q 3803 3938 3442 4084 
Q 3081 4231 2675 4231 
Q 1875 4231 1450 3742 
Q 1025 3253 1025 2328 
Q 1025 1406 1450 917 
Q 1875 428 2675 428 
Q 3081 428 3442 575 
Q 3803 722 4122 1019 
L 4122 359 
Q 3791 134 3420 21 
Q 3050 -91 2638 -91 
Q 1578 -91 968 557 
Q 359 1206 359 2328 
Q 359 3453 968 4101 
Q 1578 4750 2638 4750 
Q 3056 4750 3426 4639 
Q 3797 4528 4122 4306 
z
" transform="scale(0.015625)"/>
       <path id="DejaVuSans-28" d="M 1984 4856 
Q 1566 4138 1362 3434 
Q 1159 2731 1159 2009 
Q 1159 1288 1364 580 
Q 1569 -128 1984 -844 
L 1484 -844 
Q 1016 -109 783 600 
Q 550 1309 550 2009 
Q 550 2706 781 3412 
Q 1013 4119 1484 4856 
L 1984 4856 
z
" transform="scale(0.015625)"/>
       <path id="DejaVuSans-41" d="M 2188 4044 
L 1331 1722 
L 3047 1722 
L 2188 4044 
z
M 1831 4666 
L 2547 4666 
L 4325 0 
L 3669 0 
L 3244 1197 
L 1141 1197 
L 716 0 
L 50 0 
L 1831 4666 
z
" transform="scale(0.015625)"/>
       <path id="DejaVuSans-55" d="M 556 4666 
L 1191 4666 
L 1191 1831 
Q 1191 1081 1462 751 
Q 1734 422 2344 422 
Q 2950 422 3222 751 
Q 3494 1081 3494 1831 
L 3494 4666 
L 4128 4666 
L 4128 1753 
Q 4128 841 3676 375 
Q 3225 -91 2344 -91 
Q 1459 -91 1007 375 
Q 556 841 556 1753 
L 556 4666 
z
" transform="scale(0.015625)"/>
       <path id="DejaVuSans-3d" d="M 678 2906 
L 4684 2906 
L 4684 2381 
L 678 2381 
L 678 2906 
z
M 678 1631 
L 4684 1631 
L 4684 1100 
L 678 1100 
L 678 1631 
z
" transform="scale(0.015625)"/>
       <path id="DejaVuSans-29" d="M 513 4856 
L 1013 4856 
Q 1481 4119 1714 3412 
Q 1947 2706 1947 2009 
Q 1947 1309 1714 600 
Q 1481 -109 1013 -844 
L 513 -844 
Q 928 -128 1133 580 
Q 1338 1288 1338 2009 
Q 1338 2731 1133 3434 
Q 928 4138 513 4856 
z
" transform="scale(0.015625)"/>
      </defs>
      <use xlink:href="#DejaVuSans-52"/>
      <use xlink:href="#DejaVuSans-4f" x="69.482422"/>
      <use xlink:href="#DejaVuSans-43" x="148.193359"/>
      <use xlink:href="#DejaVuSans-20" x="218.017578"/>
      <use xlink:href="#DejaVuSans-63" x="249.804688"/>
      <use xlink:href="#DejaVuSans-75" x="304.785156"/>
      <use xlink:href="#DejaVuSans-72" x="368.164062"/>
      <use xlink:href="#DejaVuSans-76" x="409.277344"/>
      <use xlink:href="#DejaVuSans-65" x="468.457031"/>
      <use xlink:href="#DejaVuSans-20" x="529.980469"/>
      <use xlink:href="#DejaVuSans-6f" x="561.767578"/>
      <use xlink:href="#DejaVuSans-66" x="622.949219"/>
      <use xlink:href="#DejaVuSans-20" x="658.154297"/>
      <use xlink:href="#DejaVuSans-63" x="689.941406"/>
      <use xlink:href="#DejaVuSans-6c" x="744.921875"/>
      <use xlink:href="#DejaVuSans-61" x="772.705078"/>
      <use xlink:href="#DejaVuSans-73" x="833.984375"/>
      <use xlink:href="#DejaVuSans-73" x="886.083984"/>
      <use xlink:href="#DejaVuSans-20" x="938.183594"/>
      <use xlink:href="#DejaVuSans-30" x="969.970703"/>
      <use xlink:href="#DejaVuSans-20" x="1033.59375"/>
      <use xlink:href="#DejaVuSans-28" x="1065.380859"/>
      <use xlink:href="#DejaVuSans-41" x="1104.394531"/>
      <use xlink:href="#DejaVuSans-55" x="1172.802734"/>
      <use xlink:href="#DejaVuSans-43" x="1245.996094"/>
      <use xlink:href="#DejaVuSans-20" x="1315.820312"/>
      <use xlink:href="#DejaVuSans-3d" x="1347.607422"/>
      <use xlink:href="#DejaVuSans-20" x="1431.396484"/>
      <use xlink:href="#DejaVuSans-31" x="1463.183594"/>
      <use xlink:href="#DejaVuSans-2e" x="1526.806641"/>
      <use xlink:href="#DejaVuSans-30" x="1558.59375"/>
      <use xlink:href="#DejaVuSans-30" x="1622.216797"/>
      <use xlink:href="#DejaVuSans-29" x="1685.839844"/>
     </g>
    </g>
    <g id="line2d_22">
     <path d="M 205.235625 219.613688 
L 215.235625 219.613688 
L 225.235625 219.613688 
" style="fill: none; stroke: #800080; stroke-width: 2; stroke-linecap: square"/>
    </g>
    <g id="text_17">
     <!-- ROC curve of class 1 (AUC = 0.99) -->
     <g transform="translate(233.235625 223.113688) scale(0.1 -0.1)">
      <defs>
       <path id="DejaVuSans-39" d="M 703 97 
L 703 672 
Q 941 559 1184 500 
Q 1428 441 1663 441 
Q 2288 441 2617 861 
Q 2947 1281 2994 2138 
Q 2813 1869 2534 1725 
Q 2256 1581 1919 1581 
Q 1219 1581 811 2004 
Q 403 2428 403 3163 
Q 403 3881 828 4315 
Q 1253 4750 1959 4750 
Q 2769 4750 3195 4129 
Q 3622 3509 3622 2328 
Q 3622 1225 3098 567 
Q 2575 -91 1691 -91 
Q 1453 -91 1209 -44 
Q 966 3 703 97 
z
M 1959 2075 
Q 2384 2075 2632 2365 
Q 2881 2656 2881 3163 
Q 2881 3666 2632 3958 
Q 2384 4250 1959 4250 
Q 1534 4250 1286 3958 
Q 1038 3666 1038 3163 
Q 1038 2656 1286 2365 
Q 1534 2075 1959 2075 
z
" transform="scale(0.015625)"/>
      </defs>
      <use xlink:href="#DejaVuSans-52"/>
      <use xlink:href="#DejaVuSans-4f" x="69.482422"/>
      <use xlink:href="#DejaVuSans-43" x="148.193359"/>
      <use xlink:href="#DejaVuSans-20" x="218.017578"/>
      <use xlink:href="#DejaVuSans-63" x="249.804688"/>
      <use xlink:href="#DejaVuSans-75" x="304.785156"/>
      <use xlink:href="#DejaVuSans-72" x="368.164062"/>
      <use xlink:href="#DejaVuSans-76" x="409.277344"/>
      <use xlink:href="#DejaVuSans-65" x="468.457031"/>
      <use xlink:href="#DejaVuSans-20" x="529.980469"/>
      <use xlink:href="#DejaVuSans-6f" x="561.767578"/>
      <use xlink:href="#DejaVuSans-66" x="622.949219"/>
      <use xlink:href="#DejaVuSans-20" x="658.154297"/>
      <use xlink:href="#DejaVuSans-63" x="689.941406"/>
      <use xlink:href="#DejaVuSans-6c" x="744.921875"/>
      <use xlink:href="#DejaVuSans-61" x="772.705078"/>
      <use xlink:href="#DejaVuSans-73" x="833.984375"/>
      <use xlink:href="#DejaVuSans-73" x="886.083984"/>
      <use xlink:href="#DejaVuSans-20" x="938.183594"/>
      <use xlink:href="#DejaVuSans-31" x="969.970703"/>
      <use xlink:href="#DejaVuSans-20" x="1033.59375"/>
      <use xlink:href="#DejaVuSans-28" x="1065.380859"/>
      <use xlink:href="#DejaVuSans-41" x="1104.394531"/>
      <use xlink:href="#DejaVuSans-55" x="1172.802734"/>
      <use xlink:href="#DejaVuSans-43" x="1245.996094"/>
      <use xlink:href="#DejaVuSans-20" x="1315.820312"/>
      <use xlink:href="#DejaVuSans-3d" x="1347.607422"/>
      <use xlink:href="#DejaVuSans-20" x="1431.396484"/>
      <use xlink:href="#DejaVuSans-30" x="1463.183594"/>
      <use xlink:href="#DejaVuSans-2e" x="1526.806641"/>
      <use xlink:href="#DejaVuSans-39" x="1558.59375"/>
      <use xlink:href="#DejaVuSans-39" x="1622.216797"/>
      <use xlink:href="#DejaVuSans-29" x="1685.839844"/>
     </g>
    </g>
    <g id="line2d_23">
     <path d="M 205.235625 234.291812 
L 215.235625 234.291812 
L 225.235625 234.291812 
" style="fill: none; stroke: #ffa500; stroke-width: 2; stroke-linecap: square"/>
    </g>
    <g id="text_18">
     <!-- ROC curve of class 2 (AUC = 1.00) -->
     <g transform="translate(233.235625 237.791812) scale(0.1 -0.1)">
      <use xlink:href="#DejaVuSans-52"/>
      <use xlink:href="#DejaVuSans-4f" x="69.482422"/>
      <use xlink:href="#DejaVuSans-43" x="148.193359"/>
      <use xlink:href="#DejaVuSans-20" x="218.017578"/>
      <use xlink:href="#DejaVuSans-63" x="249.804688"/>
      <use xlink:href="#DejaVuSans-75" x="304.785156"/>
      <use xlink:href="#DejaVuSans-72" x="368.164062"/>
      <use xlink:href="#DejaVuSans-76" x="409.277344"/>
      <use xlink:href="#DejaVuSans-65" x="468.457031"/>
      <use xlink:href="#DejaVuSans-20" x="529.980469"/>
      <use xlink:href="#DejaVuSans-6f" x="561.767578"/>
      <use xlink:href="#DejaVuSans-66" x="622.949219"/>
      <use xlink:href="#DejaVuSans-20" x="658.154297"/>
      <use xlink:href="#DejaVuSans-63" x="689.941406"/>
      <use xlink:href="#DejaVuSans-6c" x="744.921875"/>
      <use xlink:href="#DejaVuSans-61" x="772.705078"/>
      <use xlink:href="#DejaVuSans-73" x="833.984375"/>
      <use xlink:href="#DejaVuSans-73" x="886.083984"/>
      <use xlink:href="#DejaVuSans-20" x="938.183594"/>
      <use xlink:href="#DejaVuSans-32" x="969.970703"/>
      <use xlink:href="#DejaVuSans-20" x="1033.59375"/>
      <use xlink:href="#DejaVuSans-28" x="1065.380859"/>
      <use xlink:href="#DejaVuSans-41" x="1104.394531"/>
      <use xlink:href="#DejaVuSans-55" x="1172.802734"/>
      <use xlink:href="#DejaVuSans-43" x="1245.996094"/>
      <use xlink:href="#DejaVuSans-20" x="1315.820312"/>
      <use xlink:href="#DejaVuSans-3d" x="1347.607422"/>
      <use xlink:href="#DejaVuSans-20" x="1431.396484"/>
      <use xlink:href="#DejaVuSans-31" x="1463.183594"/>
      <use xlink:href="#DejaVuSans-2e" x="1526.806641"/>
      <use xlink:href="#DejaVuSans-30" x="1558.59375"/>
      <use xlink:href="#DejaVuSans-30" x="1622.216797"/>
      <use xlink:href="#DejaVuSans-29" x="1685.839844"/>
     </g>
    </g>
    <g id="line2d_24">
     <path d="M 205.235625 248.969938 
L 215.235625 248.969938 
L 225.235625 248.969938 
" style="fill: none; stroke: #00ffff; stroke-width: 2; stroke-linecap: square"/>
    </g>
    <g id="text_19">
     <!-- ROC curve of class 3 (AUC = 1.00) -->
     <g transform="translate(233.235625 252.469938) scale(0.1 -0.1)">
      <defs>
       <path id="DejaVuSans-33" d="M 2597 2516 
Q 3050 2419 3304 2112 
Q 3559 1806 3559 1356 
Q 3559 666 3084 287 
Q 2609 -91 1734 -91 
Q 1441 -91 1130 -33 
Q 819 25 488 141 
L 488 750 
Q 750 597 1062 519 
Q 1375 441 1716 441 
Q 2309 441 2620 675 
Q 2931 909 2931 1356 
Q 2931 1769 2642 2001 
Q 2353 2234 1838 2234 
L 1294 2234 
L 1294 2753 
L 1863 2753 
Q 2328 2753 2575 2939 
Q 2822 3125 2822 3475 
Q 2822 3834 2567 4026 
Q 2313 4219 1838 4219 
Q 1578 4219 1281 4162 
Q 984 4106 628 3988 
L 628 4550 
Q 988 4650 1302 4700 
Q 1616 4750 1894 4750 
Q 2613 4750 3031 4423 
Q 3450 4097 3450 3541 
Q 3450 3153 3228 2886 
Q 3006 2619 2597 2516 
z
" transform="scale(0.015625)"/>
      </defs>
      <use xlink:href="#DejaVuSans-52"/>
      <use xlink:href="#DejaVuSans-4f" x="69.482422"/>
      <use xlink:href="#DejaVuSans-43" x="148.193359"/>
      <use xlink:href="#DejaVuSans-20" x="218.017578"/>
      <use xlink:href="#DejaVuSans-63" x="249.804688"/>
      <use xlink:href="#DejaVuSans-75" x="304.785156"/>
      <use xlink:href="#DejaVuSans-72" x="368.164062"/>
      <use xlink:href="#DejaVuSans-76" x="409.277344"/>
      <use xlink:href="#DejaVuSans-65" x="468.457031"/>
      <use xlink:href="#DejaVuSans-20" x="529.980469"/>
      <use xlink:href="#DejaVuSans-6f" x="561.767578"/>
      <use xlink:href="#DejaVuSans-66" x="622.949219"/>
      <use xlink:href="#DejaVuSans-20" x="658.154297"/>
      <use xlink:href="#DejaVuSans-63" x="689.941406"/>
      <use xlink:href="#DejaVuSans-6c" x="744.921875"/>
      <use xlink:href="#DejaVuSans-61" x="772.705078"/>
      <use xlink:href="#DejaVuSans-73" x="833.984375"/>
      <use xlink:href="#DejaVuSans-73" x="886.083984"/>
      <use xlink:href="#DejaVuSans-20" x="938.183594"/>
      <use xlink:href="#DejaVuSans-33" x="969.970703"/>
      <use xlink:href="#DejaVuSans-20" x="1033.59375"/>
      <use xlink:href="#DejaVuSans-28" x="1065.380859"/>
      <use xlink:href="#DejaVuSans-41" x="1104.394531"/>
      <use xlink:href="#DejaVuSans-55" x="1172.802734"/>
      <use xlink:href="#DejaVuSans-43" x="1245.996094"/>
      <use xlink:href="#DejaVuSans-20" x="1315.820312"/>
      <use xlink:href="#DejaVuSans-3d" x="1347.607422"/>
      <use xlink:href="#DejaVuSans-20" x="1431.396484"/>
      <use xlink:href="#DejaVuSans-31" x="1463.183594"/>
      <use xlink:href="#DejaVuSans-2e" x="1526.806641"/>
      <use xlink:href="#DejaVuSans-30" x="1558.59375"/>
      <use xlink:href="#DejaVuSans-30" x="1622.216797"/>
      <use xlink:href="#DejaVuSans-29" x="1685.839844"/>
     </g>
    </g>
    <g id="line2d_25">
     <path d="M 205.235625 263.648063 
L 215.235625 263.648063 
L 225.235625 263.648063 
" style="fill: none; stroke: #808080; stroke-width: 2; stroke-linecap: square"/>
    </g>
    <g id="text_20">
     <!-- ROC curve of class 4 (AUC = 1.00) -->
     <g transform="translate(233.235625 267.148063) scale(0.1 -0.1)">
      <use xlink:href="#DejaVuSans-52"/>
      <use xlink:href="#DejaVuSans-4f" x="69.482422"/>
      <use xlink:href="#DejaVuSans-43" x="148.193359"/>
      <use xlink:href="#DejaVuSans-20" x="218.017578"/>
      <use xlink:href="#DejaVuSans-63" x="249.804688"/>
      <use xlink:href="#DejaVuSans-75" x="304.785156"/>
      <use xlink:href="#DejaVuSans-72" x="368.164062"/>
      <use xlink:href="#DejaVuSans-76" x="409.277344"/>
      <use xlink:href="#DejaVuSans-65" x="468.457031"/>
      <use xlink:href="#DejaVuSans-20" x="529.980469"/>
      <use xlink:href="#DejaVuSans-6f" x="561.767578"/>
      <use xlink:href="#DejaVuSans-66" x="622.949219"/>
      <use xlink:href="#DejaVuSans-20" x="658.154297"/>
      <use xlink:href="#DejaVuSans-63" x="689.941406"/>
      <use xlink:href="#DejaVuSans-6c" x="744.921875"/>
      <use xlink:href="#DejaVuSans-61" x="772.705078"/>
      <use xlink:href="#DejaVuSans-73" x="833.984375"/>
      <use xlink:href="#DejaVuSans-73" x="886.083984"/>
      <use xlink:href="#DejaVuSans-20" x="938.183594"/>
      <use xlink:href="#DejaVuSans-34" x="969.970703"/>
      <use xlink:href="#DejaVuSans-20" x="1033.59375"/>
      <use xlink:href="#DejaVuSans-28" x="1065.380859"/>
      <use xlink:href="#DejaVuSans-41" x="1104.394531"/>
      <use xlink:href="#DejaVuSans-55" x="1172.802734"/>
      <use xlink:href="#DejaVuSans-43" x="1245.996094"/>
      <use xlink:href="#DejaVuSans-20" x="1315.820312"/>
      <use xlink:href="#DejaVuSans-3d" x="1347.607422"/>
      <use xlink:href="#DejaVuSans-20" x="1431.396484"/>
      <use xlink:href="#DejaVuSans-31" x="1463.183594"/>
      <use xlink:href="#DejaVuSans-2e" x="1526.806641"/>
      <use xlink:href="#DejaVuSans-30" x="1558.59375"/>
      <use xlink:href="#DejaVuSans-30" x="1622.216797"/>
      <use xlink:href="#DejaVuSans-29" x="1685.839844"/>
     </g>
    </g>
    <g id="line2d_26">
     <path d="M 205.235625 278.326188 
L 215.235625 278.326188 
L 225.235625 278.326188 
" style="fill: none; stroke: #008000; stroke-width: 2; stroke-linecap: square"/>
    </g>
    <g id="text_21">
     <!-- ROC curve of class 5 (AUC = 0.99) -->
     <g transform="translate(233.235625 281.826188) scale(0.1 -0.1)">
      <defs>
       <path id="DejaVuSans-35" d="M 691 4666 
L 3169 4666 
L 3169 4134 
L 1269 4134 
L 1269 2991 
Q 1406 3038 1543 3061 
Q 1681 3084 1819 3084 
Q 2600 3084 3056 2656 
Q 3513 2228 3513 1497 
Q 3513 744 3044 326 
Q 2575 -91 1722 -91 
Q 1428 -91 1123 -41 
Q 819 9 494 109 
L 494 744 
Q 775 591 1075 516 
Q 1375 441 1709 441 
Q 2250 441 2565 725 
Q 2881 1009 2881 1497 
Q 2881 1984 2565 2268 
Q 2250 2553 1709 2553 
Q 1456 2553 1204 2497 
Q 953 2441 691 2322 
L 691 4666 
z
" transform="scale(0.015625)"/>
      </defs>
      <use xlink:href="#DejaVuSans-52"/>
      <use xlink:href="#DejaVuSans-4f" x="69.482422"/>
      <use xlink:href="#DejaVuSans-43" x="148.193359"/>
      <use xlink:href="#DejaVuSans-20" x="218.017578"/>
      <use xlink:href="#DejaVuSans-63" x="249.804688"/>
      <use xlink:href="#DejaVuSans-75" x="304.785156"/>
      <use xlink:href="#DejaVuSans-72" x="368.164062"/>
      <use xlink:href="#DejaVuSans-76" x="409.277344"/>
      <use xlink:href="#DejaVuSans-65" x="468.457031"/>
      <use xlink:href="#DejaVuSans-20" x="529.980469"/>
      <use xlink:href="#DejaVuSans-6f" x="561.767578"/>
      <use xlink:href="#DejaVuSans-66" x="622.949219"/>
      <use xlink:href="#DejaVuSans-20" x="658.154297"/>
      <use xlink:href="#DejaVuSans-63" x="689.941406"/>
      <use xlink:href="#DejaVuSans-6c" x="744.921875"/>
      <use xlink:href="#DejaVuSans-61" x="772.705078"/>
      <use xlink:href="#DejaVuSans-73" x="833.984375"/>
      <use xlink:href="#DejaVuSans-73" x="886.083984"/>
      <use xlink:href="#DejaVuSans-20" x="938.183594"/>
      <use xlink:href="#DejaVuSans-35" x="969.970703"/>
      <use xlink:href="#DejaVuSans-20" x="1033.59375"/>
      <use xlink:href="#DejaVuSans-28" x="1065.380859"/>
      <use xlink:href="#DejaVuSans-41" x="1104.394531"/>
      <use xlink:href="#DejaVuSans-55" x="1172.802734"/>
      <use xlink:href="#DejaVuSans-43" x="1245.996094"/>
      <use xlink:href="#DejaVuSans-20" x="1315.820312"/>
      <use xlink:href="#DejaVuSans-3d" x="1347.607422"/>
      <use xlink:href="#DejaVuSans-20" x="1431.396484"/>
      <use xlink:href="#DejaVuSans-30" x="1463.183594"/>
      <use xlink:href="#DejaVuSans-2e" x="1526.806641"/>
      <use xlink:href="#DejaVuSans-39" x="1558.59375"/>
      <use xlink:href="#DejaVuSans-39" x="1622.216797"/>
      <use xlink:href="#DejaVuSans-29" x="1685.839844"/>
     </g>
    </g>
    <g id="line2d_27">
     <path d="M 205.235625 293.004312 
L 215.235625 293.004312 
L 225.235625 293.004312 
" style="fill: none; stroke: #ff0000; stroke-width: 2; stroke-linecap: square"/>
    </g>
    <g id="text_22">
     <!-- ROC curve of class 6 (AUC = 1.00) -->
     <g transform="translate(233.235625 296.504312) scale(0.1 -0.1)">
      <use xlink:href="#DejaVuSans-52"/>
      <use xlink:href="#DejaVuSans-4f" x="69.482422"/>
      <use xlink:href="#DejaVuSans-43" x="148.193359"/>
      <use xlink:href="#DejaVuSans-20" x="218.017578"/>
      <use xlink:href="#DejaVuSans-63" x="249.804688"/>
      <use xlink:href="#DejaVuSans-75" x="304.785156"/>
      <use xlink:href="#DejaVuSans-72" x="368.164062"/>
      <use xlink:href="#DejaVuSans-76" x="409.277344"/>
      <use xlink:href="#DejaVuSans-65" x="468.457031"/>
      <use xlink:href="#DejaVuSans-20" x="529.980469"/>
      <use xlink:href="#DejaVuSans-6f" x="561.767578"/>
      <use xlink:href="#DejaVuSans-66" x="622.949219"/>
      <use xlink:href="#DejaVuSans-20" x="658.154297"/>
      <use xlink:href="#DejaVuSans-63" x="689.941406"/>
      <use xlink:href="#DejaVuSans-6c" x="744.921875"/>
      <use xlink:href="#DejaVuSans-61" x="772.705078"/>
      <use xlink:href="#DejaVuSans-73" x="833.984375"/>
      <use xlink:href="#DejaVuSans-73" x="886.083984"/>
      <use xlink:href="#DejaVuSans-20" x="938.183594"/>
      <use xlink:href="#DejaVuSans-36" x="969.970703"/>
      <use xlink:href="#DejaVuSans-20" x="1033.59375"/>
      <use xlink:href="#DejaVuSans-28" x="1065.380859"/>
      <use xlink:href="#DejaVuSans-41" x="1104.394531"/>
      <use xlink:href="#DejaVuSans-55" x="1172.802734"/>
      <use xlink:href="#DejaVuSans-43" x="1245.996094"/>
      <use xlink:href="#DejaVuSans-20" x="1315.820312"/>
      <use xlink:href="#DejaVuSans-3d" x="1347.607422"/>
      <use xlink:href="#DejaVuSans-20" x="1431.396484"/>
      <use xlink:href="#DejaVuSans-31" x="1463.183594"/>
      <use xlink:href="#DejaVuSans-2e" x="1526.806641"/>
      <use xlink:href="#DejaVuSans-30" x="1558.59375"/>
      <use xlink:href="#DejaVuSans-30" x="1622.216797"/>
      <use xlink:href="#DejaVuSans-29" x="1685.839844"/>
     </g>
    </g>
   </g>
  </g>
 </g>
 <defs>
  <clipPath id="p96c9f846d5">
   <rect x="57.6" y="41.472" width="357.12" height="266.112"/>
  </clipPath>
 </defs>
</svg>
